<?xml version="1.0" encoding="iso-8859-1"?>
<!-- Generator: Adobe Illustrator 16.0.0, SVG Export Plug-In . SVG Version: 6.00 Build 0)  -->
<!DOCTYPE svg PUBLIC "-//W3C//DTD SVG 1.1//EN" "http://www.w3.org/Graphics/SVG/1.1/DTD/svg11.dtd">
<svg version="1.1" id="Capa_1" xmlns="http://www.w3.org/2000/svg" xmlns:xlink="http://www.w3.org/1999/xlink" x="0px" y="0px"
	 width="492.188px" height="492.188px" viewBox="0 0 492.188 492.188" style="enable-background:new 0 0 492.188 492.188;"
	 xml:space="preserve">
<g>
	<g>
		<path d="M349.718,186.617c3.167-2.03,5.251-5.379,5.674-9.117c0.423-3.737-0.859-7.468-3.492-10.154l-55.497-56.641
			c-3.031-3.094-7.448-4.398-11.673-3.447l-145.437,32.723c-2.36,0.531-4.515,1.735-6.204,3.467
			c-2.011,2.062-49.178,51.391-42.724,129.666c6.102,74.009,57.367,146.899,152.371,216.649c2.222,1.631,4.815,2.424,7.391,2.424
			c3.531,0,7.029-1.49,9.49-4.355l49.674-57.852c3.427-3.992,3.987-9.703,1.403-14.285c-35.01-62.076-39.257-119.275-12.625-170.012
			C318.216,207.307,349.428,186.805,349.718,186.617z M284.697,420.246l-36.439,42.438
			c-82.75-62.908-127.465-127.184-132.937-191.152c-4.927-57.603,24.838-97.785,33.407-108.048l134.694-30.306l40.688,41.527
			c-12.602,10.506-32.529,30.006-47.624,58.316c-13.81,25.898-20.721,53.799-20.542,82.924
			C256.15,349.463,265.819,384.514,284.697,420.246z"/>
		<path d="M413.576,111.721l8.752-71.549c0.447-3.663-0.746-7.337-3.262-10.037s-6.097-4.152-9.78-3.965l-71.99,3.654
			c-6.068,0.309-11.036,4.936-11.774,10.967l-8.751,71.547c-0.447,3.663,0.746,7.337,3.262,10.037
			c2.37,2.545,5.687,3.979,9.146,3.979c0.211,0,0.423-0.005,0.634-0.016l71.988-3.652
			C407.87,122.379,412.838,117.752,413.576,111.721z M390.037,98.252l-46.646,2.366l5.67-46.358l46.646-2.368L390.037,98.252z"/>
		<path d="M245.854,96.983c1.566,0.666,3.231,0.998,4.896,0.998c1.941,0,3.88-0.452,5.653-1.352l46.211-23.432
			c5.42-2.748,8.078-8.994,6.301-14.805L293.758,8.844c-1.079-3.529-3.663-6.4-7.059-7.846c-3.396-1.445-7.257-1.316-10.548,0.354
			L229.94,24.786c-5.419,2.748-8.077,8.994-6.3,14.805l15.156,49.547C239.875,92.667,242.458,95.537,245.854,96.983z M274.2,30.372
			l7.732,25.281l-23.579,11.956l-7.732-25.281L274.2,30.372z"/>
		<path d="M140.528,82.25l38.384,26.801c2.121,1.48,4.623,2.251,7.157,2.251c1.083,0,2.171-0.141,3.238-0.427
			c3.564-0.956,6.524-3.438,8.086-6.782l19.816-42.416c2.572-5.505,0.813-12.063-4.169-15.54l-38.388-26.801
			c-3.026-2.113-6.831-2.78-10.396-1.824c-3.564,0.957-6.524,3.439-8.085,6.783L136.358,66.71
			C133.787,72.215,135.546,78.771,140.528,82.25z M172.531,48.344l17.58,12.273l-9.075,19.424l-17.579-12.273L172.531,48.344z"/>
		<path d="M95.801,66.396c-3.564,0.957-6.523,3.439-8.085,6.783l-16.772,35.908c-2.572,5.505-0.812,12.062,4.17,15.54l32.494,22.684
			c2.12,1.479,4.622,2.25,7.156,2.25c1.083,0,2.172-0.141,3.239-0.427c3.564-0.957,6.524-3.438,8.085-6.782l16.775-35.904
			c2.572-5.505,0.813-12.062-4.17-15.54L106.197,68.22C103.171,66.107,99.366,65.441,95.801,66.396z M109.729,118.303l-11.688-8.159
			l6.033-12.915l11.688,8.16L109.729,118.303z"/>
	</g>
</g>
<g>
</g>
<g>
</g>
<g>
</g>
<g>
</g>
<g>
</g>
<g>
</g>
<g>
</g>
<g>
</g>
<g>
</g>
<g>
</g>
<g>
</g>
<g>
</g>
<g>
</g>
<g>
</g>
<g>
</g>
</svg>
